<?xml version="1.0" encoding="utf-8"?>
<!-- Generator: Adobe Illustrator 14.0.0, SVG Export Plug-In . SVG Version: 6.00 Build 43363)  -->
<!DOCTYPE svg PUBLIC "-//W3C//DTD SVG 1.1//EN" "http://www.w3.org/Graphics/SVG/1.1/DTD/svg11.dtd">
<svg version="1.1" id="Layer_1" xmlns="http://www.w3.org/2000/svg" xmlns:xlink="http://www.w3.org/1999/xlink" x="0px" y="0px"
	 width="959px" height="593px" viewBox="0 0 959 593" enable-background="new 0 0 959 593" xml:space="preserve">
<g>
	<path id="area_FL" fill="#D3D3D3" d="M755.397,445.507l2.266,7.318l3.729,9.742l5.335,9.377l3.718,6.305l4.85,5.496l4.042,3.718
		l1.616,2.91l-1.131,1.293l-0.809,1.294l2.91,7.437l2.909,2.909l2.587,5.335l3.557,5.82l4.526,8.244l1.293,7.599l0.485,11.963
		l0.646,1.778l-0.323,3.395l-2.425,1.293l0.323,1.94l-0.646,1.939l0.323,2.425l0.485,1.94l-2.749,3.233l-3.071,1.454l-3.88,0.162
		l-1.455,1.616l-2.425,0.971l-1.293-0.485l-1.132-0.97l-0.323-2.91l-0.809-3.395l-3.395-5.174l-3.557-2.263l-3.88-0.323
		l-0.809,1.293l-3.071-4.365l-0.646-3.556l-2.587-4.042l-1.778-1.132l-1.616,2.102l-1.778-0.323l-2.102-5.012l-2.91-3.879
		l-2.909-5.335l-2.587-3.072l-3.557-3.718l2.102-2.425l3.233-5.496l-0.162-1.617l-4.526-0.97l-1.616,0.646l0.323,0.646l2.587,0.97
		l-1.455,4.527l-0.809,0.484l-1.778-4.041l-1.293-4.851l-0.323-2.748l1.455-4.688v-9.538l-3.072-3.719l-1.293-3.071l-5.173-1.293
		l-1.94-0.646l-1.616-2.587l-3.396-1.616l-1.131-3.396l-2.749-0.97l-2.425-3.718l-4.203-1.455l-2.91-1.455h-2.586l-4.042,0.808
		l-0.161,1.94l0.809,0.97l-0.485,1.132l-3.071-0.162l-3.719,3.557l-3.557,1.94h-3.88l-3.232,1.293l-0.323-2.748l-1.617-1.939
		l-2.91-1.132l-1.616-1.455l-8.083-3.88l-7.598-1.778l-4.365,0.646l-5.981,0.485l-5.981,2.102l-3.479,0.612l-0.237-8.05
		l-2.587-1.939l-1.778-1.778l0.323-3.071l10.185-1.294l25.543-2.909l6.789-0.646l5.437,0.28l2.586,3.88l1.455,1.454l8.099,0.516
		l10.819-0.646l21.513-1.294l5.445-0.674l4.577,0.027l0.162,2.91l3.824,0.809l0.323-4.807l-1.617-4.527l0.955-0.732l5.113,0.455
		L755.397,445.507z M767.942,577.912l2.425-0.646l1.294-0.243l1.455-2.344l2.344-1.616l1.293,0.484l1.698,0.323l0.403,1.051
		l-3.476,1.213l-4.203,1.455l-2.344,1.212L767.942,577.912z M781.441,572.9l1.213,1.051l2.748-2.102l5.335-4.203l3.718-3.88
		l2.506-6.628l0.97-1.697l0.162-3.396l-0.728,0.485l-0.971,2.829l-1.454,4.607l-3.233,5.254l-4.365,4.203l-3.395,1.939
		L781.441,572.9z"/>
	<path id="area_SC" fill="#D3D3D3" d="M761.23,412.938l-1.776,0.97l-2.587-1.293l-0.646-2.102l-1.293-3.557l-2.264-2.102l-2.587-0.646
		l-1.616-4.851l-2.748-5.981l-4.203-1.939l-2.102-1.94l-1.294-2.586l-2.102-1.94l-2.263-1.293l-2.264-2.91l-3.071-2.263
		l-4.526-1.778l-0.485-1.455l-2.425-2.91l-0.484-1.455l-3.396-5.173l-3.395,0.162l-4.042-2.426l-1.293-1.293l-0.323-1.778
		l0.809-1.939l2.263-0.971l-0.323-2.102l6.144-2.586l9.053-4.526l7.274-0.809l16.489-0.485l2.264,1.94l1.616,3.233l4.365-0.485
		l12.609-1.455l2.91,0.809l12.609,7.598l10.108,8.122l-5.422,5.458l-2.586,6.144l-0.485,6.305l-1.616,0.808l-1.132,2.749
		l-2.425,0.646l-2.102,3.557l-2.748,2.748l-2.264,3.395l-1.616,0.809l-3.557,3.395l-2.91,0.162l0.97,3.233l-5.011,5.496
		L761.23,412.938z"/>
	<path id="area_GA" fill="#D3D3D3" d="M689.616,357.973l-4.85,0.809l-8.406,1.132l-8.568,0.889v2.183l0.162,2.102l0.646,3.395
		l3.395,7.922l2.425,9.861l1.455,6.143l1.617,4.85l1.455,6.952l2.102,6.305l2.586,3.395l0.485,3.395l1.939,0.809l0.162,2.102
		l-1.778,4.85l-0.485,3.233l-0.161,1.94l1.616,4.364l0.323,5.335l-0.808,2.425l0.646,0.809l1.455,0.809l0.646,3.395l2.586,3.88
		l1.455,1.455l7.922,0.161l10.819-0.646l21.513-1.293l5.445-0.675l4.577,0.028l0.162,2.909l2.587,0.809l0.323-4.364l-1.617-4.527
		l1.132-1.616l5.82,0.809l4.977,0.317l-0.775-6.299l2.264-10.022l1.455-4.203l-0.485-2.587l3.335-6.244l-0.511-1.352l-1.913,0.704
		l-2.587-1.293l-0.646-2.102l-1.293-3.557l-2.264-2.102l-2.587-0.646l-1.616-4.85l-2.925-6.335l-4.203-1.94l-2.102-1.939
		l-1.294-2.587l-2.102-1.94l-2.263-1.293l-2.264-2.91l-3.071-2.263l-4.526-1.778l-0.485-1.455l-2.425-2.91l-0.485-1.455
		l-3.395-4.907l-3.395,0.161l-4.13-3.044l-1.294-1.293l-0.323-1.778l0.809-1.939l2.352-1.235L709.1,356l0.078-0.29l-5.82,0.97
		l-6.951,0.808L689.616,357.973z"/>
	<path id="area_AL" fill="#D3D3D3" d="M625.598,466.771l-1.615-15.196l-2.748-18.753l0.161-14.064l0.809-31.038l-0.162-16.651
		l0.165-6.419l7.757-0.371l27.806-2.586l8.922-0.663l-0.147,2.183l0.162,2.102l0.646,3.396l3.395,7.921l2.425,9.861l1.455,6.144
		l1.617,4.85l1.454,6.951l2.102,6.305l2.587,3.396l0.485,3.395l1.939,0.809l0.162,2.102l-1.778,4.85l-0.485,3.233l-0.161,1.939
		l1.616,4.365l0.323,5.335l-0.809,2.425l0.647,0.808l1.454,0.809l1.036,2.535h-6.306l-6.789,0.646l-25.543,2.91l-10.411,1.407
		l-0.097,3.752l1.778,1.778l2.587,1.939l0.581,7.936l-5.542,2.573l-2.749-0.323l2.749-1.94v-0.97l-3.072-5.981l-2.263-0.646
		l-1.455,4.365l-1.293,2.748l-0.647-0.162H625.598z"/>
	<path id="area_NC" fill="#D3D3D3" d="M832.106,298.472l1.71,4.698l3.557,6.467l2.425,2.425l0.646,2.264l-2.425,0.161l0.809,0.646
		l-0.323,4.203l-2.587,1.294l-0.646,2.102l-1.293,2.91l-3.719,1.616l-2.425-0.323l-1.455-0.162l-1.616-1.293l0.323,1.293v0.971
		h1.939l0.809,1.293l-1.939,6.305h4.203l0.646,1.616l2.263-2.263l1.294-0.485l-1.94,3.557l-3.071,4.85h-1.293l-1.132-0.484
		l-2.748,0.646l-5.174,2.425l-6.466,5.335l-3.396,4.688l-1.939,6.467l-0.485,2.425l-4.688,0.485l-5.453,1.337l-9.946-8.203
		l-12.61-7.598l-2.909-0.809l-12.609,1.455l-4.277,0.75l-1.616-3.233l-2.971-2.116l-16.489,0.484l-7.274,0.809l-9.053,4.526
		l-6.144,2.587l-1.616,0.323l-5.82,0.97l-6.951,0.809l-6.79,0.485l0.5-4.055l1.778-1.455l2.749-0.646l0.646-3.719l4.203-2.748
		l3.88-1.455l4.203-3.557l4.364-2.102l0.646-3.071l3.881-3.88l0.646-0.161c0,0,0,1.131,0.808,1.131c0.809,0,1.94,0.324,1.94,0.324
		l2.263-3.557l2.102-0.647l2.264,0.324l1.616-3.557l2.91-2.587l0.485-2.102v-3.961l4.526,0.728l7.136-1.293l15.82-1.94l17.136-2.586
		l19.922-4.001l19.733-4.164l11.364-2.797L832.106,298.472z M836.002,331.46l2.587-2.506l3.152-2.587l1.535-0.646l0.162-2.021
		l-0.646-6.144l-1.455-2.344l-0.646-1.859l0.728-0.242l2.748,5.496l0.404,4.445l-0.162,3.396l-3.395,1.536l-2.829,2.425
		l-1.132,1.212L836.002,331.46z"/>
	<path id="area_TN" fill="#D3D3D3" d="M697.053,320.629l-51.893,5.012l-15.76,1.778l-4.621,0.513l-3.868-0.027v3.88l-8.407,0.484
		l-6.951,0.646l-11.096,0.053l-0.265,5.836l-2.139,6.275l-0.995,3.017l-1.349,4.381l-0.323,2.586l-4.041,2.264l1.455,3.557
		l-0.971,4.364l-0.968,0.79l7.256-0.194l24.087-1.939l5.335-0.162l8.083-0.485l27.806-2.586l10.171-0.809l8.42-0.97l8.406-1.132
		l4.851-0.809l-0.131-4.509l1.778-1.455l2.748-0.646l0.646-3.719l4.203-2.748l3.88-1.455l4.203-3.557l4.365-2.102l0.874-3.525
		l4.333-3.88l0.646-0.161c0,0,0,1.131,0.809,1.131s1.94,0.324,1.94,0.324l2.263-3.557l2.102-0.647l2.264,0.324l1.616-3.557
		l2.116-2.246L730.53,320l0.177-3.933l-1.483-0.288l-2.425,1.939l-7.922,0.162l-11.995,1.9L697.053,320.629z"/>
	<path id="area_RI" fill="#D3D3D3" d="M874.07,179.823l-0.483-4.204l-0.809-4.365l-1.697-5.901l5.739-1.536l1.616,1.131l3.396,4.365
		l2.908,4.446l-2.91,1.536l-1.294-0.162l-1.132,1.778l-2.425,1.94L874.07,179.823z"/>
	<path id="area_CT" fill="#D3D3D3" d="M873.193,180.05l-0.628-4.204l-0.808-4.365l-1.617-5.981l-4.151,0.905l-21.824,4.769l0.646,3.314
		l1.455,7.275v8.083l-1.132,2.263l1.832,2.109l4.956-3.401l3.556-3.233l1.94-2.102l0.809,0.647l2.748-1.455l5.173-1.132
		L873.193,180.05z"/>
	<path id="area_MA" fill="#D3D3D3" d="M899.977,173.851l2.173-0.686l0.457-1.715l1.028,0.114l1.029,2.286l-1.258,0.458l-3.887,0.114
		L899.977,173.851z M890.604,174.651l2.286-2.629h1.601l1.829,1.486l-2.4,1.029l-2.172,1.029L890.604,174.651z M855.805,152.663
		l17.459-4.203l2.264-0.646l2.102-3.233l3.736-1.663l2.89,4.413l-2.425,5.173l-0.324,1.455l1.94,2.586l1.132-0.809h1.778
		l2.263,2.587l3.88,5.981l3.557,0.485l2.264-0.97l1.778-1.778l-0.809-2.749l-2.102-1.617l-1.455,0.809l-0.97-1.293l0.484-0.485
		l2.102-0.162l1.778,0.808l1.94,2.425l0.97,2.91l0.323,2.425l-4.203,1.455l-3.88,1.94l-3.88,4.526l-1.939,1.455v-0.97l2.425-1.455
		l0.484-1.778l-0.808-3.072l-2.91,1.455l-0.809,1.455l0.485,2.263l-2.066,1l-2.747-4.527l-3.395-4.365l-2.071-1.813l-6.533,1.876
		l-5.092,1.051l-21.824,4.769l-0.402-4.944l0.646-10.589l5.173-0.889L855.805,152.663z"/>
	<path id="area_ME" fill="#D3D3D3" d="M923.215,77.331l1.939,2.102l2.264,3.718v1.94l-2.102,4.688l-1.94,0.647l-3.395,3.071l-4.85,5.497
		c0,0-0.646,0-1.293,0c-0.647,0-0.971-2.102-0.971-2.102l-1.778,0.162l-0.97,1.455l-2.425,1.455l-0.97,1.455l1.616,1.455
		l-0.484,0.646l-0.485,2.749l-1.94-0.162v-1.617l-0.323-1.293l-1.454,0.323l-1.778-3.233l-2.102,1.293l1.293,1.455l0.323,1.132
		l-0.809,1.293l0.323,3.072l0.162,1.617l-1.616,2.586l-2.91,0.485l-0.323,2.91l-5.335,3.071l-1.293,0.485l-1.617-1.455l-3.071,3.556
		l0.97,3.233l-1.455,1.293l-0.161,4.365l-1.124,6.259l-2.462-1.156l-0.485-3.072l-3.879-1.131l-0.324-2.749l-7.274-23.441
		l-4.198-13.64l1.42-0.118l1.514,0.41v-2.587l0.809-5.496l2.587-4.688l1.455-4.042l-1.94-2.425v-5.981l0.809-0.97l0.809-2.749
		l-0.162-1.455l-0.161-4.85l1.778-4.85l2.909-8.892l2.102-4.203h1.294l1.293,0.162v1.132l1.293,2.263l2.748,0.646l0.809-0.808v-0.97
		l4.042-2.91l1.778-1.778l1.454,0.162l5.981,2.425l1.94,0.97l9.053,29.907h5.981l0.809,1.94l0.161,4.85l2.91,2.263h0.809
		l0.161-0.485l-0.484-1.132L923.215,77.331z M902.283,107.478l1.535-1.536l1.375,1.051l0.565,2.425l-1.697,0.889L902.283,107.478z
		 M908.992,101.578l1.778,1.859c0,0,1.293,0.081,1.293-0.242s0.242-2.021,0.242-2.021l0.89-0.808l-0.809-1.778l-2.021,0.728
		L908.992,101.578z"/>
	<path id="area_NH" fill="#D3D3D3" d="M880.799,142.425l0.869-1.077l1.09-3.291l-2.543-0.914l-0.484-3.071l-3.88-1.132l-0.323-2.748
		l-7.275-23.441l-4.602-14.543l-0.896-0.005l-0.646,1.617l-0.646-0.485l-0.971-0.97l-1.455,1.94l-0.048,5.032l0.312,5.667
		l1.939,2.748v4.042l-3.718,5.063l-2.587,1.131v1.132l1.132,1.778v8.568l-0.809,9.215l-0.161,4.85l0.97,1.293l-0.161,4.526
		l-0.485,1.778l1.455,0.886l16.39-4.69l2.264-0.646l1.534-2.552L880.799,142.425z"/>
	<path id="area_VT" fill="#D3D3D3" d="M844.344,153.727l-0.809-5.658l-2.391-9.972l-0.646-0.323l-2.91-1.293l0.809-2.91l-0.809-2.102
		l-2.7-4.64l0.97-3.88l-0.808-5.173l-2.425-6.466l-0.806-4.922l26.247-6.748l0.324,5.819l1.94,2.749v4.042l-3.719,4.042
		l-2.586,1.131v1.132l1.132,1.778v8.568l-0.809,9.215l-0.162,4.85l0.971,1.293l-0.162,4.526l-0.485,1.778l0.661,1.567l-6.951,1.374
		L844.344,153.727z"/>
	<path id="area_NY" fill="#D3D3D3" d="M828.614,189.422l-1.132-0.97l-2.586-0.162l-2.264-1.94l-1.631-6.129l-3.458,0.091l-2.444-2.708
		l-19.385,4.382l-43.002,8.73l-7.529,1.228l-0.738-6.468l1.428-1.125l1.293-1.132l0.971-1.617l1.778-1.131l1.939-1.778l0.485-1.617
		l2.102-2.748l1.132-0.97l-0.162-0.97l-1.293-3.072l-1.778-0.162l-1.94-6.143l2.91-1.778l4.365-1.455l4.041-1.293l3.233-0.485
		l6.305-0.161l1.939,1.293l1.617,0.162l2.102-1.293l2.587-1.131l5.173-0.485l2.102-1.778l1.778-3.233l1.616-1.94h2.102l1.94-1.131
		l0.161-2.263l-1.455-2.102l-0.323-1.455l1.132-2.102v-1.455h-1.778l-1.778-0.808l-0.808-1.132l-0.162-2.586l5.819-5.497
		l0.647-0.808l1.454-2.91l2.91-4.526l2.748-3.718l2.102-2.425l2.415-1.826l3.082-1.246l5.496-1.293l3.233,0.162l4.526-1.455
		l7.565-2.071l0.52,4.98l2.425,6.466l0.809,5.173l-0.97,3.88l2.586,4.527l0.809,2.102l-0.809,2.91l2.91,1.293l0.646,0.323
		l3.072,10.993l-0.537,5.06l-0.484,10.831l0.808,5.497l0.809,3.557l1.455,7.274v8.083l-1.132,2.263l1.84,1.993l0.796,1.678
		l-1.939,1.778l0.323,1.293l1.293-0.323l1.455-1.293l2.264-2.586l1.131-0.647l1.617,0.647l2.263,0.162l7.922-3.88l2.91-2.748
		l1.293-1.455l4.203,1.617l-3.395,3.556l-3.88,2.91l-7.113,5.335l-2.587,0.97l-5.819,1.94l-4.042,1.131l-1.175-0.533l-0.244-3.688
		l0.485-2.748l-0.161-2.102l-2.813-1.699l-4.527-0.97l-3.88-1.131L828.614,189.422z"/>
	<path id="area_NJ" fill="#D3D3D3" d="M828.16,190.33l-2.102,2.425v3.072l-1.939,3.072l-0.162,1.616l1.293,1.293l-0.161,2.425
		l-2.264,1.132l0.809,2.748l0.162,1.132l2.748,0.323l0.97,2.586l3.557,2.425l2.425,1.617v0.809l-3.233,3.071l-1.616,2.263
		l-1.455,2.749l-2.264,1.293l-1.212,0.728l-0.242,1.212l-0.609,2.607l1.092,2.244l3.233,2.91l4.85,2.264l4.042,0.646l0.161,1.455
		l-0.808,0.97l0.323,2.748h0.808l2.102-2.425l0.809-4.85l2.748-4.042l3.072-6.466l1.131-5.497l-0.646-1.132l-0.161-9.376
		l-1.617-3.395l-1.132,0.808l-2.748,0.324l-0.484-0.485l1.131-0.97l2.102-1.94l0.063-1.094l-0.385-3.434l0.485-2.748l-0.162-2.102
		l-2.586-1.132l-4.526-0.97l-3.88-1.132L828.16,190.33z"/>
	<path id="area_PA" fill="#D3D3D3" d="M822.207,226.46l1.132-0.647l2.263-0.612l1.455-2.748l1.617-2.263l3.232-3.072v-0.808l-2.425-1.617
		l-3.557-2.425l-0.97-2.587l-2.748-0.323l-0.162-1.131l-0.808-2.749l2.263-1.131l0.162-2.425l-1.294-1.293l0.162-1.617l1.939-3.072
		v-3.071l2.345-2.425l0.214-1.083l-2.586-0.162l-2.264-1.94l-2.425-5.335l-3.005-0.931l-2.33-2.141l-18.591,4.042l-43.002,8.73
		l-8.891,1.455l-0.496-7.084l-5.487,5.63l-1.294,0.485l-4.202,3.009l2.911,19.137l2.481,9.729l3.572,19.262l3.269-0.638
		l11.944-1.503l37.927-7.665l14.876-2.823l8.3-1.623l0.268-0.238l2.102-1.617L822.207,226.46z"/>
	<path id="area_DE" fill="#D3D3D3" d="M822.353,230.423l0.589-2.103l0.021-1.205l-1.269-0.088l-2.102,1.616l-1.455,1.455l1.455,4.203
		l2.263,5.658l2.102,9.7l1.617,6.305l5.011-0.162l6.143-1.212l-2.265-7.355l-0.97,0.485l-3.557-2.425l-1.778-4.688l-1.939-3.557
		l-2.264-0.97l-2.102-3.556L822.353,230.423z"/>
	<path id="area_MD" fill="#D3D3D3" d="M836.953,255.305l-6.141,1.292l-5.806,0.162l-1.844-7.099l-2.102-9.7l-2.264-5.658l-1.288-4.398
		l-7.506,1.622l-14.877,2.823l-37.451,7.551l1.132,5.011l0.97,5.658l0.323-0.323l2.102-2.425l2.264-2.618l2.425-0.616l1.455-1.455
		l1.777-2.587l1.294,0.647l2.909-0.324l2.587-2.102l2.007-1.453l1.846-0.485l1.645,1.13l2.909,1.455l1.94,1.778l1.212,1.536
		l4.123,1.697v2.91l5.496,1.293l1.145,0.542l1.412-2.028l2.882,1.97l-1.278,2.482l-0.766,3.986l-1.778,2.586v2.102l0.647,1.778
		l5.063,1.355l4.312-0.062l3.071,0.97l2.102,0.323l0.97-2.102l-1.455-2.102v-1.778l-2.425-2.102l-2.102-5.497l1.293-5.335
		l-0.161-2.102l-1.293-1.293c0,0,1.454-1.617,1.454-2.264c0-0.646,0.485-2.102,0.485-2.102l1.94-1.293l1.939-1.617l0.485,0.97
		l-1.455,1.616l-1.294,3.718l0.324,1.132l1.777,0.323l0.485,5.497l-2.102,0.97l0.323,3.557l0.485-0.162l1.132-1.94l1.616,1.778
		l-1.616,1.293l-0.324,3.395l2.587,3.395l3.88,0.485l1.617-0.808l3.236,4.183l1.358,0.537l6.653-2.797l2.008-4.023L836.953,255.305z
		 M820.321,264.29l1.131,2.506l0.162,1.778l1.132,1.859c0,0,0.889-0.889,0.889-1.212s-0.728-3.072-0.728-3.072l-0.728-2.344
		L820.321,264.29z"/>
	<path id="area_WV" fill="#D3D3D3" d="M756.561,241.967l1.112,4.944l1.083,6.907l3.56-2.749l2.264-3.071l2.538-0.616l1.455-1.455
		l1.778-2.586l1.18,0.646l2.91-0.323l2.586-2.102l2.007-1.453l1.846-0.485l1.304,1.016l2.229,1.115l1.939,1.778l1.374,1.293
		l-0.143,4.671l-5.658-3.072l-4.526-1.778l-0.162,5.335l-0.484,2.102l-1.617,2.748l-0.646,1.617l-3.071,2.425l-0.485,2.264
		l-3.395,0.323l-0.323,3.071l-1.132,5.497h-2.587l-1.293-0.808l-1.616-2.749l-1.778,0.162l-0.323,4.365l-2.102,6.628l-5.012,10.831
		l0.809,1.293l-0.162,2.748l-2.102,1.94l-1.455-0.323l-3.233,2.425l-2.586-0.97l-1.778,4.688c0,0-3.719,0.809-4.365,0.971
		c-0.646,0.161-2.425-1.294-2.425-1.294l-2.425,2.263l-2.587,0.647l-2.91-0.809l-1.293-1.294l-2.192-3.022l-3.143-1.988
		l-2.586-2.748l-2.91-3.718l-0.646-2.263l-2.587-1.455l-0.809-1.617l-0.242-5.254l2.183-0.081l1.939-0.808l0.162-2.748l1.616-1.455
		l0.162-5.012l0.97-3.88l1.293-0.646l1.294,1.132l0.484,1.778l1.778-0.97l0.485-1.617l-1.132-1.778v-2.425l0.97-1.293l2.264-3.395
		l1.293-1.455l2.102,0.485l2.264-1.617l3.071-3.395l2.264-3.88l0.323-5.658l0.484-5.012v-4.688l-1.131-3.071l0.97-1.455l1.283-1.293
		l3.491,19.827l4.631-0.751L756.561,241.967z"/>
	<path id="area_KY" fill="#D3D3D3" d="M721.783,297.818l-2.325,2.683l-4.203,3.556l-4.299,5.903l-1.778,1.778v2.102l-3.88,2.102
		l-5.658,3.395l-3.52,0.385l-51.868,4.898l-15.76,1.778l-4.621,0.513l-3.868-0.027l-0.227,4.22l-8.18,0.145l-6.951,0.647
		l-10.431,0.205l1.912-0.222l2.181-1.762l2.058-1.144l0.229-3.2l0.914-1.829l-1.606-2.539l0.802-1.907l2.264-1.778l2.102-0.646
		l2.748,1.294l3.557,1.293l1.131-0.323l0.162-2.264l-1.293-2.425l0.323-2.263l1.939-1.455l2.587-0.646l1.616-0.647l-0.808-1.778
		l-0.647-1.939l1.132-0.809l1.051-3.314l2.991-1.697l5.819-0.969l3.557-0.486l1.455,1.94l1.778,0.809l1.778-3.233l2.91-1.455
		l1.939,1.617l0.809,1.131l2.102-0.484l-0.162-3.395l2.91-1.617l1.132-0.808l1.132,1.616h4.688l0.809-2.102l-0.323-2.263l2.91-3.557
		l4.688-3.88l0.485-4.526l2.748-0.323l3.88-1.778l2.748-1.94l-0.323-1.94l-1.455-1.455l0.566-2.182l4.122-0.243l2.425-0.808
		l2.91,1.617l1.616,4.365l5.82,0.323l1.778,1.778l2.102,0.162l2.425-1.455l3.071,0.485l1.293,1.455l2.748-2.586l1.778-1.293h1.617
		l0.646,2.749l1.778,0.97l2.422,2.215l0.161,5.496l0.809,1.617l2.587,1.455l0.646,2.263l2.91,3.718l2.586,2.748L721.783,297.818z"/>
	<path id="area_OH" fill="#D3D3D3" d="M731.436,195.008l-6.093,4.053l-3.88,2.263l-3.396,3.718l-4.041,3.88l-3.233,0.808l-2.91,0.485
		l-5.496,2.586l-2.102,0.162l-3.395-3.072l-5.174,0.647l-2.586-1.455l-2.382-1.351l-4.893,0.703l-10.185,1.617l-7.76,1.212
		l1.294,14.63l1.778,13.741l2.586,23.441l0.566,4.831l4.122-0.129l2.425-0.809l3.364,1.503l2.07,4.365l5.139-0.017l1.892,2.119
		l1.762-0.065l2.538-1.341l2.504,0.372l1.975,1.455l1.727-2.132l2.346-1.293l2.07-0.681l0.646,2.748l1.778,0.97l3.476,2.344
		l2.183-0.081l1.146-1.149l-0.065-1.387l1.617-1.455l0.162-5.012l0.97-3.88l1.52-1.441l1.521,0.905l0.825,1.211l1.211-0.176
		l-0.423-2.411l-0.563-0.643v-2.425l0.97-1.293l2.263-3.395l1.294-1.455l2.102,0.485l2.263-1.617l3.072-3.395l2.263-3.88l0.21-5.431
		l0.485-5.011v-4.688l-1.132-3.071l0.97-1.455l0.921-0.955l-1.405-9.843L731.436,195.008z"/>
	<path id="area_MI" fill="#D3D3D3" d="M581.619,82.059l1.829-2.058l2.172-0.8l5.373-3.887l2.286-0.571l0.457,0.457l-5.144,5.144
		l-3.315,1.943l-2.058,0.915L581.619,82.059z M667.794,114.187l0.646,2.506l3.233,0.162l1.293-1.212c0,0-0.081-1.455-0.404-1.617
		s-1.616-1.859-1.616-1.859l-2.183,0.242l-1.616,0.162l-0.323,1.132L667.794,114.187z M697.86,177.237l-3.233-8.245l-2.264-9.053
		l-2.425-3.233l-2.586-1.778l-1.617,1.132l-3.88,1.778l-1.939,5.011l-2.748,3.718l-1.132,0.646l-1.455-0.646
		c0,0-2.587-1.455-2.425-2.102c0.161-0.646,0.484-5.012,0.484-5.012l3.396-1.293l0.808-3.395l0.647-2.586l2.425-1.617l-0.323-10.023
		l-1.617-2.263l-1.293-0.809l-0.809-2.102l0.809-0.808l1.616,0.323l0.162-1.617l-2.425-2.263l-1.294-2.586h-2.586l-4.526-1.455
		l-5.497-3.395h-2.748l-0.646,0.647l-0.97-0.485l-3.072-2.263l-2.909,1.778l-2.91,2.263l0.323,3.557l0.97,0.323l2.102,0.485
		l0.485,0.809l-2.587,0.808l-2.586,0.324l-1.455,1.778l-0.323,2.102l0.323,1.617l0.323,5.497l-3.557,2.102l-0.646-0.162v-4.203
		l1.293-2.425l0.646-2.425l-0.808-0.808l-1.94,0.808l-0.97,4.204l-2.748,1.131l-1.778,1.94l-0.162,0.97l0.646,0.809l-0.646,2.586
		l-2.263,0.485v1.132l0.808,2.425l-1.131,6.143l-1.617,4.042l0.646,4.688l0.485,1.131l-0.809,2.425l-0.323,0.809l-0.323,2.748
		l3.557,5.981l2.91,6.466l1.455,4.85l-0.809,4.688l-0.97,5.981l-2.425,5.173l-0.324,2.748l-3.259,3.085l4.409-0.162l21.418-2.264
		l7.278-0.987l0.097,1.667l6.852-1.212l10.298-1.503l3.854-0.461l0.138-0.587l0.162-1.455l2.102-3.718l2-1.738l-0.222-5.052
		l1.597-1.597l1.091-0.343l0.222-3.557l1.536-3.031l1.051,0.606l0.162,0.646l0.808,0.162l1.94-0.97L697.86,177.237z
		 M567.492,111.213l0.716-0.581l2.749-0.809l3.556-2.263v-0.97l0.647-0.646l5.981-0.97l2.425-1.94l4.364-2.102l0.162-1.293
		l1.939-2.91l1.778-0.808l1.294-1.778l2.263-2.263l4.365-2.425l4.688-0.485l1.132,1.132l-0.323,0.97l-3.718,0.97l-1.455,3.071
		l-2.264,0.809l-0.484,2.425l-2.425,3.233l-0.324,2.587l0.809,0.485l0.97-1.132l3.557-2.91l1.294,1.293h2.263l3.233,0.97
		l1.455,1.132l1.455,3.071l2.748,2.748l3.88-0.162l1.455-0.97l1.616,1.293l1.617,0.485l1.293-0.809h1.132l1.616-0.97l4.042-3.557
		l3.395-1.131l6.628-0.323l4.526-1.94l2.587-1.293l1.455,0.162v5.658l0.484,0.323l2.91,0.808l1.939-0.485l6.144-1.617l1.132-1.131
		l1.455,0.485v6.951l3.232,3.072l1.294,0.646l1.293,0.97l-1.293,0.323l-0.809-0.323l-3.718-0.485l-2.102,0.647l-2.264-0.162
		l-3.233,1.455h-1.778l-5.819-1.293l-5.173,0.162l-1.94,2.586l-6.951,0.647l-2.425,0.808l-1.132,3.071l-1.293,1.132l-0.485-0.162
		l-1.455-1.617l-4.526,2.425h-0.646l-1.132-1.617l-0.809,0.162l-1.939,4.365l-0.97,4.042l-3.182,7l-1.177-1.034l-1.371-1.031
		l-1.941-10.288l-3.544-1.37l-2.053-2.286l-12.12-2.743l-2.855-1.03l-8.23-2.173l-7.891-1.143L567.492,111.213z"/>
	<path id="area_WY" fill="#D3D3D3" d="M354.251,143.776l-10.549-0.807l-32.088-3.295l-16.232-2.058l-28.349-4.115l-19.89-2.972
		l-1.419,11.176l-3.839,24.26l-5.258,30.407l-1.531,10.516l-1.669,11.889l6.523,0.928l25.879,2.5l20.569,2.307l36.784,4.115
		l23.821,2.86l4.504-44.192l1.44-25.377L354.251,143.776z"/>
	<path id="area_MT" fill="#D3D3D3" d="M356.671,122.274l0.647-11.151l2.259-24.787c0.457-5.029,1.083-8.472,1.372-15.41l0.94-14.552
		l-30.674-2.808l-29.261-3.556l-29.261-4.042l-32.332-5.335l-18.429-3.395l-32.724-6.933l-4.479,21.348l3.429,7.544l-1.372,4.572
		l1.829,4.573l3.201,1.372l4.621,10.77l2.695,3.177l0.457,1.143l3.429,1.143l0.458,2.058l-7.087,17.604v2.515l2.515,3.201h0.914
		l4.801-2.972l0.686-1.143l1.6,0.686l-0.229,5.258l2.744,12.574l2.972,2.515l0.915,0.686l1.829,2.286l-0.457,3.429l0.686,3.43
		l1.143,0.914l2.287-2.286h2.743l3.201,1.601l2.515-0.915h4.115l3.658,1.6l2.744-0.457l0.457-2.972l2.972-0.686l1.372,1.372
		l0.458,3.201l1.779,1.365l1.534-11.565l20.692,2.972l28.188,3.955l16.553,1.897l31.446,3.456l10.99,1.524l1.052-15.427
		L356.671,122.274z"/>
	<path id="area_ID" fill="#D3D3D3" d="M162.12,180.959c-22.611-4.343-14.147-2.847-21.141-4.351l4.427-17.502l4.344-17.718l1.372-4.229
		l2.515-5.944l-1.257-2.286l-2.515,0.114l-0.8-1.029l0.457-1.143l0.343-3.086l4.458-5.487l1.829-0.458l1.144-1.143l0.571-3.201
		l0.915-0.686l3.887-5.83l3.886-4.344l0.229-3.772l-3.43-2.629l-1.314-4.401l0.4-9.66l3.658-16.46l4.458-20.805l3.772-13.489
		l0.762-3.803l12.996,2.528l-4.158,21.508l2.948,7.705l-1.051,4.572l1.989,4.573l3.201,1.692l4.46,9.807l2.695,3.818l0.618,1.143
		l3.429,1.143l0.458,2.539l-6.927,16.802l0.321,3.317l2.675,2.879l1.877,0.481l4.801-3.614l0.365-0.501l0.156,0.847l0.253,4.135
		l2.583,12.895l3.454,2.676l0.433,0.846l2.15,2.447l-0.778,2.787l0.686,3.75l1.945,0.915l2.126-1.645l2.583-0.481l3.361,1.601
		l2.515-0.594l3.794-0.16l3.979,1.6l2.744-0.297l0.938-2.33l2.491-1.649l0.73,1.693l0.618,2.238l2.308,2.539l-3.772,23.981
		l-5.144,29.009l-4.159-0.319l-8.184-1.532l-9.807-1.829l-12.163-2.378l-12.528-2.504l-8.483-1.84l-9.259-1.668L162.12,180.959z"/>
	<path id="area_WA" fill="#D3D3D3" d="M93.573,6.362l4.365,1.455l9.7,2.748l8.568,1.94l20.046,5.658l22.956,5.658l15.161,3.395
		l-1.004,3.884l-4.093,13.81l-4.458,20.805l-3.177,16.14l-0.352,9.379l-13.181-3.894l-15.57-3.383l-13.667,0.596l-1.581-1.532
		l-5.326,1.897l-3.977-0.25l-2.721-1.761l-1.579,0.525l-4.205-0.229l-1.875-1.372l-4.777-1.737l-1.442-0.207l-4.986-1.326
		l-1.783,1.508l-5.691-0.343l-4.821-3.794l0.205-0.8l0.068-7.934l-2.125-3.887l-4.115-0.732l-0.365-2.354l-2.514-0.627l-2.882-0.535
		l-1.778,0.97l-2.264-2.91l0.324-2.91l2.748-0.323l1.617-4.042l-2.587-1.132l0.162-3.718l4.365-0.646l-2.749-2.749l-1.455-7.113
		l0.646-2.91v-7.922l-1.778-3.233l2.263-9.376l2.102,0.485l2.425,2.91l2.749,2.586l3.233,1.94l4.527,2.102l3.071,0.647l2.91,1.455
		l3.395,0.97l2.263-0.162v-2.425l1.293-1.131l2.102-1.293l0.323,1.132l0.324,1.778l-2.264,0.485l-0.323,2.102l1.778,1.455
		l1.132,2.425l0.646,1.94l1.455-0.162l0.162-1.293l-0.97-1.293l-0.485-3.233l0.808-1.778l-0.646-1.455v-2.263l1.778-3.557
		l-1.132-2.586l-2.425-4.85l0.323-0.809L93.573,6.362z M84.117,12.341l2.021-0.162l0.485,1.374l1.536-1.617h2.344l0.809,1.536
		l-1.536,1.698l0.646,0.808l-0.728,2.021l-1.374,0.404c0,0-0.889,0.081-0.889-0.242s1.455-2.586,1.455-2.586l-1.698-0.566
		l-0.323,1.455l-0.728,0.647l-1.536-2.263L84.117,12.341z"/>
	<path id="area_TX" fill="#D3D3D3" d="M357.053,333.374l22.691,1.086l31.093,1.143l-2.335,23.456l-0.297,18.153l0.068,2.082l4.344,3.818
		l1.737,0.822l1.809,0.253l0.687-1.255l0.89,0.866l1.737,0.48l1.604-0.729l1.139,0.409l-0.297,3.405l4.275,1.03l2.676,0.822
		l3.954,0.525l2.194,1.829l3.249-1.576l2.787,0.365l2.034,2.787l1.074,0.321l-0.16,1.965l3.089,1.168l2.768-1.805l1.508,0.364
		l2.354,0.161l0.433,1.872l4.641,1.99l2.656-0.205l1.989-4.115h0.341l1.143,1.897l4.437,1.007l3.337,1.211l3.293,0.754l2.15-0.754
		l0.846-2.515h3.702l1.897,0.754l3.064-1.576h0.661l0.365,1.119h4.275l2.403-1.255l1.668,0.297l1.416,1.872l2.88,1.669l3.521,1.075
		l2.743,1.418l2.447,1.622l3.293-0.891l1.94,0.983l0.512,10.139l0.335,9.703l0.686,9.533l0.525,4.047l2.676,4.597l1.075,4.067
		l3.862,6.289l0.55,2.88l0.525,1.007l-0.687,7.496l-2.65,4.388l0.958,2.86l-0.365,2.515l-0.846,7.316l-1.372,2.719l0.604,4.387
		l-5.665,1.585l-9.861,4.526l-0.97,1.939l-2.587,1.94l-2.102,1.455l-1.293,0.809l-5.658,5.334l-2.748,2.102l-5.335,3.233
		l-5.658,2.425l-6.305,3.396l-1.778,1.454l-5.82,3.557l-3.395,0.647l-3.88,5.496l-4.041,0.323l-0.971,1.939l2.264,1.94l-1.455,5.496
		l-1.293,4.526l-1.132,3.88l-0.809,4.527l0.809,2.425l1.778,6.951l0.97,6.143l1.778,2.749l-0.97,1.454l-3.072,1.94l-5.657-3.88
		l-5.497-1.132l-1.293,0.485l-3.233-0.646l-4.203-3.072l-5.173-1.131l-7.599-3.396l-2.102-3.88l-1.293-6.466l-3.233-1.94
		l-0.646-2.263l0.646-0.647l0.323-3.395l-1.293-0.646l-0.646-0.97l1.293-4.365l-1.616-2.263l-3.233-1.294l-3.395-4.364l-3.557-6.629
		l-4.203-2.586l0.161-1.94l-5.334-12.286l-0.809-4.203l-1.778-1.939l-0.162-1.455l-5.981-5.335l-2.586-3.071v-1.132l-2.586-2.102
		l-6.79-1.132l-7.436-0.646l-3.072-2.263l-4.526,1.777l-3.557,1.455l-2.263,3.233l-0.97,3.719l-4.365,6.143l-2.425,2.425
		l-2.586-0.97l-1.778-1.132l-1.94-0.646l-3.88-2.264v-0.646l-1.778-1.939l-5.173-2.102l-7.437-7.76l-2.263-4.688v-8.083
		l-3.233-6.466l-0.485-2.749l-1.617-0.97l-1.132-2.102l-5.011-2.102l-1.293-1.616l-7.113-7.922l-1.293-3.233l-4.688-2.263
		l-1.455-4.365l-2.586-2.91l-1.94-0.484l-0.649-4.678l8.002,0.686l29.035,2.744l29.035,1.6l2.287-23.776l3.886-55.555l1.601-18.748
		l1.372,0.029 M457.23,567.323l-0.566-7.113l-2.748-7.194l-0.565-7.032l1.535-8.244l3.314-6.871l3.476-5.415l3.152-3.557
		l0.646,0.242l-4.769,6.628l-4.365,6.548l-2.021,6.628l-0.323,5.173l0.889,6.144l2.587,7.193l0.485,5.174l0.161,1.454
		L457.23,567.323z"/>
	<path id="area_CA" fill="#D3D3D3" d="M136.741,386.754l3.815-0.489l1.486-2.011l0.732-1.941l-3.176-0.09l-1.099-1.764l0.778-1.715
		l-0.046-6.15l2.218-1.328l2.697-2.583l0.411-4.915l1.646-3.497l1.943-2.104l3.269-1.714l1.279-0.73l0.756-1.483l-0.868-0.893
		l-0.961-1.511l-0.937-5.348l-2.904-5.236l0.097-2.787l-2.201-3.248l-14.999-23.229l-19.433-28.714l-22.427-33.034l-12.702-19.545
		l1.797-7.208l6.813-25.949l8.116-31.436l-12.365-3.337l-13.489-3.43l-12.574-4.115l-7.544-2.058l-11.431-2.972l-7.051-2.412
		l-1.58,4.725l-0.162,7.437l-5.173,11.801l-3.072,2.587l-0.323,1.131l-1.778,0.809l-1.455,4.203l-0.809,3.233l2.749,4.203
		l1.616,4.204l1.132,3.556l-0.323,6.467l-1.778,3.071l-0.646,5.82l-0.97,3.718l1.778,3.88l2.748,4.526l2.264,4.85l1.293,4.042
		l-0.323,3.233l-0.323,0.485v2.102l5.658,6.305l-0.485,2.425l-0.646,2.263l-0.646,1.94l0.162,8.245l2.102,3.718l1.94,2.586
		l2.748,0.485l0.97,2.749l-1.132,3.557l-2.102,1.616h-1.131l-0.809,3.88l0.485,2.91l3.233,4.365l1.617,5.334l1.455,4.688
		l1.293,3.071l3.395,5.819l1.455,2.588l0.485,2.909l1.617,0.97v2.425l-0.809,1.94l-1.778,7.113l-0.485,1.939l2.425,2.748
		l4.203,0.485l4.527,1.778l3.88,2.102h2.91l2.91,3.071l2.586,4.85l1.131,2.264l3.88,2.102l4.85,0.809l1.455,2.102l0.646,3.232
		l-1.455,0.647l0.323,0.97l3.233,0.809l2.748,0.161l2.91,4.688l3.88,4.203l0.808,2.263l2.586,4.203l0.324,3.233v9.377l0.485,1.778
		l10.023,1.454l19.723,2.749L136.741,386.754z M48.793,337.037l1.293,1.535l-0.162,1.294l-3.233-0.081l-0.566-1.213l-0.646-1.454
		L48.793,337.037z M50.733,337.037l1.212-0.646l3.557,2.102l3.072,1.212l-0.889,0.646l-4.526-0.242l-1.617-1.616L50.733,337.037z
		 M71.426,356.841l1.778,2.344l0.808,0.97l1.536,0.566l0.566-1.455l-0.97-1.778l-2.667-2.021l-1.051,0.162V356.841z M69.971,365.489
		l1.778,3.152l1.212,1.94l-1.455,0.242l-1.293-1.213c0,0-0.728-1.455-0.728-1.858c0-0.404,0-2.183,0-2.183L69.971,365.489z"/>
	<path id="area_AZ" fill="#D3D3D3" d="M137.747,387.5l-2.627,2.159l-0.323,1.454l0.485,0.971l18.914,10.669l12.125,7.599l14.711,8.567
		l16.813,10.023l12.286,2.425l25.128,2.705l2.531-12.507l3.753-27.243l6.965-52.881l4.257-30.966l-24.597-3.679l-27.206-4.572
		l-33.429-6.318l-2.922,18.092l-0.458,0.457l-1.714,2.63l-2.515-0.114l-1.257-2.744l-2.744-0.343l-0.915-1.143h-0.914l-0.915,0.571
		l-1.943,1.028l-0.114,6.974l-0.229,1.715l-0.571,12.574l-1.486,2.172l-0.571,3.314l2.744,4.916l1.257,5.829l0.8,1.029l1.029,0.571
		l-0.115,2.286l-1.6,1.372l-3.429,1.715l-1.943,1.943l-1.486,3.657l-0.571,4.916l-2.858,2.743l-2.058,0.686l-0.114,5.83
		l-0.458,1.715l0.458,0.8l3.658,0.572l-0.571,2.743l-1.486,2.172L137.747,387.5z"/>
	<path id="area_NV" fill="#D3D3D3" d="M140.658,177.572l20.98,4.511l9.716,1.943l9.259,1.829l6.615,1.633l-0.559,5.865l-3.543,17.329
		l-4.093,19.98l-1.943,9.719l-2.172,13.282l-3.155,16.415l-3.521,15.685l-1.968,10.181l-2.466,16.771l-0.457,1.099l-1.073,2.469
		l-1.873-0.114l-1.097-2.743l-2.743-0.504l-1.396-0.982l-2.038,0.321l-0.915,0.731l-1.302,1.35l-0.435,6.974l-0.55,1.715
		l-0.411,12.093l-1.322,1.714l-1.876-2.262l-14.518-22.748l-19.433-29.035l-22.748-33.836L77.24,230.373l1.636-6.566l6.973-25.949
		l7.888-31.348l33.607,8.143l13.717,2.972"/>
	<path id="area_UT" fill="#D3D3D3" d="M252.971,309.307l-24.643-3.473l-26.564-4.894l-33.827-6.02l1.588-9.157l3.201-15.203l3.315-16.575
		l2.172-13.603l1.943-8.917l3.772-20.461l3.543-17.49l1.115-5.573l12.717,2.258l12.002,2.058l10.288,1.829l8.345,1.372l3.678,0.479
		l-1.485,10.63l-2.312,13.173l7.808,0.928l16.407,1.805l8.211,0.856l-2.13,21.968l-3.201,22.566l-3.753,27.826l-1.666,11.108
		L252.971,309.307z"/>
	<path id="area_CO" fill="#D3D3D3" d="M378.621,256.796l1.44-21.282l-32.095-3.064l-24.463-2.7l-37.265-4.115l-20.69-2.515l-2.629,22.176
		l-3.201,22.405l-3.753,27.987l-1.505,11.108l-0.25,2.763l33.926,3.795l37.741,4.267l31.96,3.165l16.608,0.847"/>
	<path id="area_NM" fill="#D3D3D3" d="M282.724,431.045l-0.65-6.123l8.644,0.525l29.516,3.064l28.393,1.439l1.965-22.332l3.726-55.876
		l1.119-19.39l2.014,0.35l-0.014-11.074l-32.204-2.403l-36.938-4.427l-34.465-4.115l-4.2,30.758l-6.965,53.202l-3.752,26.922
		l-2.049,13.309l15.46,1.989l1.293-10.022l16.651,2.586L282.724,431.045z"/>
	<path id="area_OR" fill="#D3D3D3" d="M140.306,176.686l4.298-17.9l4.665-17.879l1.051-4.229l2.354-5.623l-0.615-1.163l-2.515-0.046
		l-1.282-1.67l0.458-1.464l0.503-3.247l4.458-5.487l1.829-1.099l1.143-1.143l1.486-3.566l4.047-5.669l3.565-3.862l0.229-3.451
		l-3.269-2.469l-1.209-4.51l-13.238-3.745l-15.089-3.543l-15.432,0.114l-0.458-1.372l-5.487,2.058l-4.458-0.572l-2.401-1.6
		l-1.257,0.686l-4.687-0.229l-1.715-1.372l-5.258-2.058l-0.8,0.114l-4.344-1.486l-1.943,1.829l-6.173-0.343l-5.944-4.115l0.686-0.8
		L73.732,68l-2.286-3.887l-4.115-0.572l-0.686-2.515l-2.354-0.466l-5.799,2.059l-2.263,6.466l-3.233,10.023l-3.233,6.466
		L44.752,99.64l-6.467,13.58l-8.083,12.61l-1.94,2.91l-0.808,8.568l-1.293,5.981l2.708,3.527l6.729,2.251l11.592,3.293l7.866,2.539
		l12.414,3.634l13.328,3.59l13.168,3.565"/>
	<path id="area_ND" fill="#D3D3D3" d="M471.306,127.668l-0.365-7.496l-1.989-7.316l-1.829-13.649l-0.457-9.831l-1.99-3.108l-1.6-5.351
		V70.629l0.686-3.887l-2.115-5.499l-28.424-0.564l-18.591-0.646l-26.512-1.293l-24.946-1.884l-1.261,14.23l-1.372,15.089
		l-2.259,24.947l-0.486,11.021l56.816,3.764L471.306,127.668z"/>
	<path id="area_SD" fill="#D3D3D3" d="M472.797,203.181l-0.953-1.081l-1.521-3.627l1.829-3.702l1.051-5.555l-2.583-2.058l-0.297-2.744
		l0.594-2.996l2.15-0.802l0.297-5.735l-0.068-30.086l-0.618-2.972l-4.115-3.59l-0.982-1.989v-1.921l1.897-1.279l1.532-1.854
		l0.183-2.719l-57.383-1.6l-56.174-3.887l-0.767,5.279l-1.613,15.868l-1.345,17.947l-1.6,24.597l16.028,1.029l19.637,1.143
		l17.993,1.303l23.776,1.304l10.745-0.778l2.86,2.287l4.319,2.972l0.983,0.754l3.541-0.891l4.047-0.297l2.743-0.068l3.113,1.211
		l4.548,1.439l3.133,1.761l0.618,1.921l0.914,1.897l0.706-0.481L472.797,203.181z"/>
	<path id="area_NE" fill="#D3D3D3" d="M484.244,246.99l1.372,2.675l0.093,2.126l2.354,3.726l2.72,3.152h-5.05l-43.482-0.939l-40.787-0.89
		l-21.191-0.961l1.073-21.328l-33.379-2.744l4.344-44.01l15.546,1.029l20.119,1.143l17.832,1.143l23.777,1.143l10.745-0.457
		l2.058,2.286l4.801,2.972l1.144,0.915l4.344-1.372l3.887-0.458l2.743-0.229l1.829,1.372l5.029,1.601l2.973,1.6l0.457,1.601
		l0.915,2.058h1.828l0.799,0.046l0.982,5.212l2.743,8.026l1.235,4.641l2.126,3.818l0.525,4.938l1.439,4.276l0.55,6.469"/>
	<path id="area_IA" fill="#D3D3D3" d="M566.594,201.628l0.17,1.942l2.287,1.14l1.141,1.257l0.344,1.262l3.887,3.202l0.687,2.173
		l-0.8,2.862l-1.488,3.544l-0.8,2.742l-2.173,1.603l-1.715,0.572l-5.485,1.485l-0.687,2.283l-0.799,2.285l0.572,1.372l1.716,1.714
		l-0.002,3.661l-2.169,1.601l-0.459,1.487v2.517l-1.489,0.457l-1.714,1.37l-0.455,1.485l0.455,1.717l-1.374,1.205l-2.294-2.691
		l-1.483-2.626l-8.341,0.799l-10.171,0.571l-25.036,0.688l-13.035,0.229l-9.374,0.229l-1.315,0.122l-1.654-4.472l-0.229-6.63
		l-1.601-4.115l-0.687-5.258l-2.286-3.658l-0.914-4.801l-2.743-7.544l-1.144-5.373l-1.372-2.172l-1.6-2.744l1.829-4.344l1.371-5.716
		l-2.743-2.058l-0.457-2.743l0.914-2.515h1.715h11.545l49.611-0.686l19.877-0.686l1.851,2.747l1.833,2.622l0.455,0.804l-1.83,2.749
		l0.455,4.222l2.515,3.886l2.969,1.824l2.405,0.23L566.594,201.628z"/>
	<path id="area_MS" fill="#D3D3D3" d="M624.559,466.97l-0.254,1.256h-5.173l-1.455-0.809l-2.102-0.323l-6.79,1.94l-1.778-0.809
		l-2.587,4.203l-1.103,0.778l-1.123-2.488l-1.144-3.887l-3.43-3.2l1.144-7.545l-0.686-0.914l-1.829,0.229l-8.23,0.686l-24.234,0.687
		l-0.457-1.601l0.686-8.002l3.43-6.173l5.258-9.145l-0.914-2.058h1.144l0.686-3.201l-2.286-1.829l0.229-1.829l-2.058-4.572
		l-0.286-5.344l1.372-2.658l-0.4-4.344l-1.371-2.972l1.371-1.372l-1.371-2.058l0.457-1.829l0.914-6.173l2.973-2.743l-0.687-2.058
		l3.658-5.259l2.743-0.914v-2.515l-0.686-1.372l2.743-5.258l2.744-1.144l0.107-3.412l8.675-0.077l24.088-1.94l4.58-0.229
		l0.009,6.372l0.161,16.651l-0.808,31.038l-0.162,14.064l2.748,18.753L624.559,466.97z"/>
	<path id="area_IN" fill="#D3D3D3" d="M618.421,300.855l0.064-2.859l0.485-4.526l2.264-2.91l1.778-3.88l2.586-4.203l-0.484-5.82
		l-1.778-2.748l-0.323-3.233l0.808-5.496l-0.484-6.952l-1.294-16.004l-1.293-15.358l-0.971-11.72l3.071,0.889l1.455,0.97
		l1.132-0.323l2.102-1.94l2.829-1.617l5.093-0.162l21.986-2.263l5.575-0.533l1.504,15.957l4.251,36.841l0.599,5.771l-0.372,2.263
		l1.229,1.795l0.096,1.373l-2.521,1.6l-3.54,1.551l-3.202,0.55l-0.599,4.867l-4.574,3.313l-2.797,4.01l0.323,2.377l-0.581,1.534
		h-3.326l-1.586-1.617l-2.493,1.262l-2.683,1.503l0.161,3.054l-1.193,0.258l-0.468-1.018l-2.167-1.503l-3.25,1.341l-1.552,3.007
		l-1.438-0.809l-1.455-1.599l-4.465,0.484l-5.593,0.97L618.421,300.855z"/>
	<path id="area_IL" fill="#D3D3D3" d="M617.805,301.602v-3.605l0.258-4.866l2.377-3.137l1.778-3.766l2.587-3.863l-0.372-5.252
		l-2.005-3.542l-0.097-3.347l0.695-5.27l-0.825-7.178l-1.066-15.778l-1.294-15.017l-0.922-11.639l-0.272-0.921l-0.809-2.587
		l-1.293-3.718l-1.617-1.778l-1.454-2.587l-0.233-5.489l-9.903,1.312l-27.206,1.715l-8.688-0.429l0.229,2.372l2.286,0.686
		l0.915,1.143l0.457,1.829l3.887,3.429l0.686,2.286l-0.686,3.429l-1.829,3.658l-0.687,2.515l-2.286,1.829l-1.829,0.686l-5.258,1.372
		l-0.686,1.829l-0.687,2.058l0.687,1.372l1.828,1.6l-0.229,4.115l-1.828,1.601l-0.687,1.601v2.743l-1.829,0.457l-1.6,1.144
		l-0.229,1.372l0.229,2.058l-1.715,1.314l-1.029,2.801l0.457,3.658l2.287,7.316l7.315,7.545l5.487,3.658l-0.229,4.344l0.914,1.372
		l6.401,0.457l2.743,1.372l-0.686,3.658l-2.286,5.944l-0.686,3.201l2.286,3.887l6.401,5.258l4.572,0.686l2.058,5.03l2.058,3.2
		l-0.914,2.973l1.6,4.115l1.829,2.058l1.944-0.792l0.687-2.164l2.037-1.438l3.236-1.101l3.088,1.18l2.876,1.066l0.791-0.21
		l-0.065-1.241l-1.066-2.766l0.438-2.377l2.28-1.568l2.359-0.987l1.163-0.42l-0.582-1.324l-0.76-2.166l1.245-1.263L617.805,301.602z
		"/>
	<path id="area_MN" fill="#D3D3D3" d="M471.879,128.471l-0.457-8.459l-1.829-7.316l-1.829-13.489l-0.457-9.831l-1.829-3.429l-1.601-5.03
		V70.629l0.687-3.887l-1.821-5.452l30.133,0.035l0.323-8.245l0.646-0.162l2.263,0.485l1.94,0.809l0.809,5.497l1.454,6.143
		l1.617,1.616h4.85l0.323,1.455l6.305,0.323v2.102h4.85l0.323-1.293l1.132-1.132l2.264-0.646l1.293,0.97h2.91l3.88,2.587
		l5.335,2.425l2.425,0.485l0.484-0.97l1.455-0.485l0.485,2.91l2.587,1.293l0.484-0.485l1.293,0.162v2.102l2.587,0.97h3.071
		l1.617-0.809l3.233-3.233l2.586-0.485l0.809,1.778l0.485,1.293h0.97l0.97-0.808l8.892-0.323l1.778,3.071h0.646l0.714-1.084
		l4.439-0.371l-0.612,2.28l-3.938,1.837l-9.246,4.061l-4.774,2.007l-3.071,2.587l-2.425,3.556l-2.264,3.88l-1.778,0.809
		l-4.526,5.011l-1.293,0.162l-3.842,2.934l-2.816,3.161l-0.229,2.97l0.227,7.778l-1.597,1.6l-5.259,4.114l-1.832,5.717l2.519,3.648
		l0.458,2.52l-1.147,2.974l-0.228,3.659l0.458,7.084l3.426,4.107h2.976l2.51,2.293l3.202,1.365l3.659,5.035l7.088,5.023l1.83,2.063
		l0.234,5.502l-20.588,0.686l-60.249,0.459l-0.338-35.677l-0.457-2.972l-4.115-3.429l-1.144-1.829v-1.601l2.058-1.6l1.372-1.372
		L471.879,128.471z"/>
	<path id="area_WI" fill="#D3D3D3" d="M612.941,197.181l0.37-2.97l-1.616-4.527l-0.646-6.143l-1.132-2.425l0.97-3.071l0.809-2.91
		l1.455-2.586l-0.647-3.395l-0.646-3.557l0.485-1.778l1.939-2.425l0.162-2.748l-0.809-1.293l0.646-2.586l0.485-3.233l2.748-5.658
		l2.91-6.79l0.161-2.263l-0.323-0.97l-0.808,0.485l-4.203,6.305l-2.749,4.042l-1.939,1.778l-0.809,2.263l-1.455,0.808l-1.131,1.94
		l-1.455-0.323l-0.162-1.778l1.294-2.425l2.102-4.688l1.777-1.617l1.102-2.292l-1.631-0.905l-1.371-1.372l-1.601-10.288
		l-3.658-1.143l-1.371-2.287l-12.574-2.743l-2.516-1.143l-8.23-2.287l-8.229-1.143l-4.17-5.405l-0.529,1.261l-1.132-0.162
		l-0.646-1.132l-2.748-0.808l-1.132,0.162l-1.778,0.97l-0.97-0.647l0.646-1.94l1.939-3.071l1.132-1.132l-1.939-1.455l-2.102,0.808
		l-2.91,1.94l-7.437,3.233l-2.91,0.647l-2.909-0.485l-0.982-0.878l-2.116,2.835l-0.229,2.744v8.459l-1.144,1.601l-5.258,3.886
		l-2.286,5.944l0.457,0.229l2.515,2.058l0.686,3.201l-1.829,3.201v3.887l0.458,6.63l2.972,2.972h3.43l1.829,3.201l3.429,0.458
		l3.887,5.715l7.088,4.115l2.057,2.744l0.915,7.43l0.686,3.315l2.286,1.601l0.229,1.372l-2.058,3.429l0.229,3.201l2.515,3.887
		l2.515,1.143l2.972,0.458l1.343,1.38h9.174l26.066-1.487L612.941,197.181z"/>
	<path id="area_MO" fill="#D3D3D3" d="M555.789,249.527l-2.521-3.087l-1.143-2.286l-7.773,0.686l-9.831,0.457l-25.377,0.915
		l-13.488,0.229l-7.888,0.115l-2.286,0.114l1.257,2.515l-0.229,2.286l2.515,3.887l3.087,4.115l3.086,2.743l2.286,0.229l1.372,0.915
		v2.972l-1.829,1.601l-0.457,2.286l2.058,3.43l2.515,2.972l2.515,1.829l1.372,11.66l-0.686,35.323l0.229,4.687l0.457,5.384
		l23.433-0.117l23.206-0.686l20.805-0.802l11.655-0.229l2.169,3.426l-0.684,3.308l-3.088,2.402l-0.572,1.838l5.379,0.457
		l3.895-0.686l1.718-5.494l0.651-5.856l2.318-2.025l1.713-1.486l2.058-1.03l0.114-2.859l0.574-1.716l-1.031-1.748l-2.745,0.145
		l-2.169-2.625l-1.374-4.229l0.802-2.519l-1.944-3.428l-1.831-4.575l-4.799-0.8l-6.969-5.599l-1.72-4.114l0.8-3.201l2.06-6.058
		l0.459-2.864l-1.949-1.031l-6.855-0.798l-1.028-1.712l-0.111-4.23l-5.487-3.431l-6.976-7.771l-2.286-7.316l-0.23-4.225
		L555.789,249.527z"/>
	<path id="area_AR" fill="#D3D3D3" d="M590.952,344.953l-3.848,0.938l-6.173-0.457l0.687-2.972l3.2-2.744l0.457-2.286l-1.828-2.972
		l-10.975,0.457l-20.805,0.915l-23.319,0.686l-23.319,0.457l1.601,6.858v8.23l1.372,10.975l0.229,37.837l2.286,1.943l2.972-1.372
		l2.743,1.144l0.431,10.323l22.886-0.143l18.864-0.801l10.121-0.197l1.146-2.091l-0.286-3.55l-1.826-2.972l1.6-1.485l-1.6-2.512
		l0.685-2.51l1.368-5.605l2.519-2.063l-0.686-2.284l3.657-5.372l2.744-1.368l-0.114-1.494l-0.345-1.825l2.856-5.599l2.403-1.257
		l0.384-3.428l1.771-1.241l0.857-4.234l-1.342-4.011l4.041-2.377l0.551-2.019l1.235-4.268L590.952,344.953z"/>
	<path id="area_OK" fill="#D3D3D3" d="M375.343,322.571l-10.688-0.457l-6.43-0.485l0.257,0.199l-0.704,10.423l21.965,1.406l32.056,1.304
		l-2.335,24.419l-0.457,17.832l0.229,1.601l4.344,3.658l2.058,1.143l0.687-0.229l0.686-2.058l1.371,1.829h2.059v-1.371l2.743,1.371
		l-0.457,3.887l4.115,0.229l2.515,1.144l4.115,0.686l2.515,1.829l2.286-2.058l3.43,0.686l2.515,3.43h0.914v2.286l2.286,0.686
		l2.287-2.286l1.828,0.687h2.516l0.914,2.515l4.801,1.829l1.372-0.687l1.829-4.115h1.143l1.144,2.058l4.115,0.687l3.658,1.371
		l2.972,0.915l1.829-0.915l0.686-2.515h4.344l2.058,0.915l2.744-2.058h1.143l0.687,1.6h4.114l1.601-2.058l1.829,0.458l2.058,2.515
		l3.201,1.829l3.2,0.914l1.941,1.119l-0.389-37.217l-1.372-10.975l-0.161-8.872l-1.439-6.538l-0.778-7.18l-0.068-3.815
		l-12.137,0.318l-46.41-0.457l-45.038-2.058L375.343,322.571z"/>
	<path id="area_KS" fill="#D3D3D3" d="M503.381,325.13l-12.618,0.205l-46.09-0.457l-44.557-2.058l-24.63-1.258l4.144-64.72l21.833,0.8
		l40.466,1.372l44.125,0.458h5.096l3.247,3.225l2.768,0.229l0.89,1.075v2.009l-1.828,1.601l-0.458,2.607l2.219,3.59l2.515,3.133
		l2.515,1.989l1.051,11.178L503.381,325.13z"/>
	<path id="area_LA" fill="#D3D3D3" d="M602.202,472.995l-1.029-2.616l-1.144-3.093l-3.315-3.541l0.916-6.75l-0.118-1.142l-1.262,0.342
		l-8.23,0.913l-25.028,0.459l-0.685-2.395l0.913-8.456l3.315-5.945l5.031-8.691l-0.573-2.398l1.256-0.681l0.459-1.952l-2.286-2.056
		l-0.111-1.942l-1.831-4.346l-0.456-5.941l-9.725,0.113l-19.205,0.915l-22.205,0.028l0.029,9.574l0.686,9.373l0.686,3.887
		l2.516,4.115l0.914,5.029l4.344,5.487l0.229,3.2l0.687,0.687l-0.687,8.459l-2.972,5.029l1.601,2.058l-0.687,2.515l-0.686,7.316
		l-1.372,3.2l0.123,3.617l4.687-1.521l8.083-0.323l10.346,3.557l6.467,1.132l3.718-1.455l3.233,1.132l3.233,0.97l0.809-2.102
		l-3.233-1.132l-2.587,0.485l-2.748-1.617c0,0,0.161-1.293,0.809-1.455c0.646-0.161,3.071-0.97,3.071-0.97l1.778,1.455l1.778-0.97
		l3.233,0.646l1.454,2.425l0.324,2.264l4.526,0.323l1.778,1.778l-0.809,1.616l-1.293,0.809l1.616,1.616l8.406,3.557l3.557-1.293
		l0.97-2.425l2.587-0.647l1.778-1.454l1.293,0.97l0.809,2.91l-2.264,0.808l0.646,0.646l3.396-1.293l2.263-3.395l0.809-0.485
		l-2.102-0.323l0.809-1.616l-0.162-1.455l2.102-0.485l1.132-1.293l0.646,0.808c0,0-0.161,3.072,0.646,3.072
		c0.809,0,4.203,0.646,4.203,0.646l4.042,1.939l0.97,1.455h2.91l1.132,0.971l2.263-3.072v-1.455h-1.293l-3.396-2.748l-5.819-0.809
		l-3.233-2.263l1.132-2.748l2.264,0.323l0.161-0.646l-1.778-0.971v-0.484h3.233l1.778-3.071l-1.293-1.94l-0.323-2.748l-1.455,0.161
		l-1.94,2.102l-0.646,2.587l-3.071-0.646l-0.971-1.778l1.778-1.94l2.021-1.777L602.202,472.995z"/>
	<path id="area_VA" fill="#D3D3D3" d="M828.906,269.246l-0.144-1.947l6.453-2.55l-0.771,3.218l-2.92,3.779l-0.418,4.586l0.462,3.391
		l-1.828,4.978l-2.164,1.916l-1.471-4.641l0.446-5.449l1.587-4.183L828.906,269.246z M831.187,297.547l-58.175,12.575l-37.427,5.279
		l-6.679-0.375l-2.585,1.927l-7.339,0.221l-8.382,0.978l-8.927,0.951l8.48-4.948l-0.013-2.074l1.52-2.146l10.554-11.502l3.947,4.479
		l3.783,0.963l2.543-1.14l2.237-1.312l2.537,1.344l3.914-1.428l1.877-4.557l2.601,0.54l2.855-2.131l1.799,0.493l2.827-3.676
		l0.349-2.083l-0.964-1.276l1.003-1.867l5.274-12.277l0.616-5.735l1.229-0.523l2.178,2.443l3.937-0.301l1.929-7.573l2.794-0.561
		l1.05-2.741l2.58-2.347l1.268-2.342l1.504-3.353l0.085-5.067l9.822,3.823c0.681,0.34,0.655-4.784,0.655-4.784l4.051,1.377
		l-0.462,2.629l8.156,2.939l1.293,1.794l-0.868,3.682l-1.264,1.326l-0.506,1.746l0.494,2.403l1.959,1.278l3.918,1.445l2.949,0.968
		l4.856,0.942l2.152,2.088l3.19,0.402l0.868,1.2l-0.439,4.69l1.374,1.103l-0.479,1.931l1.229,0.79l-0.222,1.385l-2.694-0.095
		l0.089,1.616l2.281,1.543l0.121,1.412l1.773,1.786l0.491,2.524l-2.553,1.381l1.572,1.494l5.801-1.686L831.187,297.547z"/>
	<path id="area_DC" fill="#D3D3D3" d="M801.757,253.844l-1.077-1.637l-1.014-0.842l1.1-1.616l2.232,1.511L801.757,253.844z"/>
<line id="edge_AL_FL" stroke="#000000" stroke-width="2" x1="658" y1="424" x2="714" y2="461"/>
<line id="edge_AL_GA" stroke="#000000" stroke-width="2" x1="658" y1="424" x2="697" y2="387"/>
<line id="edge_AL_MS" stroke="#000000" stroke-width="2" x1="658" y1="424" x2="590" y2="424"/>
<line id="edge_AL_TN" stroke="#000000" stroke-width="2" x1="658" y1="424" x2="653" y2="341"/>
<line id="edge_AR_LA" stroke="#000000" stroke-width="2" x1="534" y1="374" x2="580" y2="475"/>
<line id="edge_AR_MO" stroke="#000000" stroke-width="2" x1="534" y1="374" x2="543" y2="296"/>
<line id="edge_AR_MS" stroke="#000000" stroke-width="2" x1="534" y1="374" x2="590" y2="424"/>
<line id="edge_AR_OK" stroke="#000000" stroke-width="2" x1="534" y1="374" x2="461" y2="361"/>
<line id="edge_AR_TN" stroke="#000000" stroke-width="2" x1="534" y1="374" x2="653" y2="341"/>
<line id="edge_AR_TX" stroke="#000000" stroke-width="2" x1="534" y1="374" x2="461" y2="473"/>
<line id="edge_AZ_CA" stroke="#000000" stroke-width="2" x1="201" y1="374" x2="53" y2="227"/>
<line id="edge_AZ_NM" stroke="#000000" stroke-width="2" x1="201" y1="374" x2="302" y2="339"/>
<line id="edge_AZ_NV" stroke="#000000" stroke-width="2" x1="201" y1="374" x2="96" y2="227"/>
<line id="edge_AZ_UT" stroke="#000000" stroke-width="2" x1="201" y1="374" x2="206" y2="219"/>
<line id="edge_CA_NV" stroke="#000000" stroke-width="2" x1="53" y1="227" x2="96" y2="227"/>
<line id="edge_CA_OR" stroke="#000000" stroke-width="2" x1="53" y1="227" x2="63" y2="100"/>
<line id="edge_CO_KS" stroke="#000000" stroke-width="2" x1="317" y1="259" x2="481" y2="286"/>
<line id="edge_CO_NE" stroke="#000000" stroke-width="2" x1="317" y1="259" x2="468" y2="244"/>
<line id="edge_CO_NM" stroke="#000000" stroke-width="2" x1="317" y1="259" x2="302" y2="339"/>
<line id="edge_CO_OK" stroke="#000000" stroke-width="2" x1="317" y1="259" x2="461" y2="361"/>
<line id="edge_CO_UT" stroke="#000000" stroke-width="2" x1="317" y1="259" x2="206" y2="219"/>
<line id="edge_CO_WY" stroke="#000000" stroke-width="2" x1="317" y1="259" x2="328" y2="214"/>
<line id="edge_CT_MA" stroke="#000000" stroke-width="2" x1="860" y1="176" x2="874" y2="155"/>
<line id="edge_CT_NY" stroke="#000000" stroke-width="2" x1="860" y1="176" x2="832" y2="155"/>
<line id="edge_CT_RI" stroke="#000000" stroke-width="2" x1="860" y1="176" x2="878" y2="172"/>
<line id="edge_DE_MD" stroke="#000000" stroke-width="2" x1="832" y1="250" x2="804" y2="251"/>
<line id="edge_DE_NJ" stroke="#000000" stroke-width="2" x1="832" y1="250" x2="837" y2="212"/>
<line id="edge_DE_PA" stroke="#000000" stroke-width="2" x1="832" y1="250" x2="796" y2="217"/>
<line id="edge_FL_GA" stroke="#000000" stroke-width="2" x1="714" y1="461" x2="697" y2="387"/>
<line id="edge_GA_NC" stroke="#000000" stroke-width="2" x1="697" y1="387" x2="797" y2="325"/>
<line id="edge_GA_SC" stroke="#000000" stroke-width="2" x1="697" y1="387" x2="758" y2="373"/>
<line id="edge_GA_TN" stroke="#000000" stroke-width="2" x1="697" y1="387" x2="653" y2="341"/>
<line id="edge_IA_IL" stroke="#000000" stroke-width="2" x1="504" y1="214" x2="590" y2="250"/>
<line id="edge_IA_MN" stroke="#000000" stroke-width="2" x1="504" y1="214" x2="520" y2="157"/>
<line id="edge_IA_MO" stroke="#000000" stroke-width="2" x1="504" y1="214" x2="543" y2="296"/>
<line id="edge_IA_NE" stroke="#000000" stroke-width="2" x1="504" y1="214" x2="468" y2="244"/>
<line id="edge_IA_SD" stroke="#000000" stroke-width="2" x1="504" y1="214" x2="395" y2="164"/>
<line id="edge_IA_WI" stroke="#000000" stroke-width="2" x1="504" y1="214" x2="590" y2="188"/>
<line id="edge_ID_MT" stroke="#000000" stroke-width="2" x1="168" y1="152" x2="233" y2="80"/>
<line id="edge_ID_NV" stroke="#000000" stroke-width="2" x1="168" y1="152" x2="96" y2="227"/>
<line id="edge_ID_OR" stroke="#000000" stroke-width="2" x1="168" y1="152" x2="63" y2="100"/>
<line id="edge_ID_UT" stroke="#000000" stroke-width="2" x1="168" y1="152" x2="206" y2="219"/>
<line id="edge_ID_WA" stroke="#000000" stroke-width="2" x1="168" y1="152" x2="84" y2="42"/>
<line id="edge_ID_WY" stroke="#000000" stroke-width="2" x1="168" y1="152" x2="328" y2="214"/>
<line id="edge_IL_IN" stroke="#000000" stroke-width="2" x1="590" y1="250" x2="644" y2="244"/>
<line id="edge_IL_KY" stroke="#000000" stroke-width="2" x1="590" y1="250" x2="675" y2="297"/>
<line id="edge_IL_MO" stroke="#000000" stroke-width="2" x1="590" y1="250" x2="543" y2="296"/>
<line id="edge_IL_WI" stroke="#000000" stroke-width="2" x1="590" y1="250" x2="590" y2="188"/>
<line id="edge_IN_KY" stroke="#000000" stroke-width="2" x1="644" y1="244" x2="675" y2="297"/>
<line id="edge_IN_MI" stroke="#000000" stroke-width="2" x1="644" y1="244" x2="664" y2="188"/>
<line id="edge_IN_OH" stroke="#000000" stroke-width="2" x1="644" y1="244" x2="702" y2="239"/>
<line id="edge_KS_MO" stroke="#000000" stroke-width="2" x1="481" y1="286" x2="543" y2="296"/>
<line id="edge_KS_NE" stroke="#000000" stroke-width="2" x1="481" y1="286" x2="468" y2="244"/>
<line id="edge_KS_OK" stroke="#000000" stroke-width="2" x1="481" y1="286" x2="461" y2="361"/>
<line id="edge_KY_MO" stroke="#000000" stroke-width="2" x1="675" y1="297" x2="543" y2="296"/>
<line id="edge_KY_OH" stroke="#000000" stroke-width="2" x1="675" y1="297" x2="702" y2="239"/>
<line id="edge_KY_TN" stroke="#000000" stroke-width="2" x1="675" y1="297" x2="653" y2="341"/>
<line id="edge_KY_VA" stroke="#000000" stroke-width="2" x1="675" y1="297" x2="813" y2="286"/>
<line id="edge_KY_WV" stroke="#000000" stroke-width="2" x1="675" y1="297" x2="736" y2="281"/>
<line id="edge_LA_MS" stroke="#000000" stroke-width="2" x1="580" y1="475" x2="590" y2="424"/>
<line id="edge_LA_TX" stroke="#000000" stroke-width="2" x1="580" y1="475" x2="461" y2="473"/>
<line id="edge_MA_NH" stroke="#000000" stroke-width="2" x1="874" y1="155" x2="869" y2="137"/>
<line id="edge_MA_NY" stroke="#000000" stroke-width="2" x1="874" y1="155" x2="832" y2="155"/>
<line id="edge_MA_RI" stroke="#000000" stroke-width="2" x1="874" y1="155" x2="878" y2="172"/>
<line id="edge_MA_VT" stroke="#000000" stroke-width="2" x1="874" y1="155" x2="850" y2="123"/>
<line id="edge_MD_PA" stroke="#000000" stroke-width="2" x1="804" y1="251" x2="796" y2="217"/>
<line id="edge_MD_VA" stroke="#000000" stroke-width="2" x1="804" y1="251" x2="813" y2="286"/>
<line id="edge_MD_WV" stroke="#000000" stroke-width="2" x1="804" y1="251" x2="736" y2="281"/>
<line id="edge_ME_NH" stroke="#000000" stroke-width="2" x1="896" y1="95" x2="869" y2="137"/>
<line id="edge_MI_OH" stroke="#000000" stroke-width="2" x1="664" y1="188" x2="702" y2="239"/>
<line id="edge_MI_WI" stroke="#000000" stroke-width="2" x1="664" y1="188" x2="590" y2="188"/>
<line id="edge_MN_ND" stroke="#000000" stroke-width="2" x1="520" y1="157" x2="395" y2="107"/>
<line id="edge_MN_SD" stroke="#000000" stroke-width="2" x1="520" y1="157" x2="395" y2="164"/>
<line id="edge_MN_WI" stroke="#000000" stroke-width="2" x1="520" y1="157" x2="590" y2="188"/>
<line id="edge_MO_NE" stroke="#000000" stroke-width="2" x1="543" y1="296" x2="468" y2="244"/>
<line id="edge_MO_OK" stroke="#000000" stroke-width="2" x1="543" y1="296" x2="461" y2="361"/>
<line id="edge_MO_TN" stroke="#000000" stroke-width="2" x1="543" y1="296" x2="653" y2="341"/>
<line id="edge_MS_TN" stroke="#000000" stroke-width="2" x1="590" y1="424" x2="653" y2="341"/>
<line id="edge_MT_ND" stroke="#000000" stroke-width="2" x1="233" y1="80" x2="395" y2="107"/>
<line id="edge_MT_SD" stroke="#000000" stroke-width="2" x1="233" y1="80" x2="395" y2="164"/>
<line id="edge_MT_WY" stroke="#000000" stroke-width="2" x1="233" y1="80" x2="328" y2="214"/>
<line id="edge_NC_SC" stroke="#000000" stroke-width="2" x1="797" y1="325" x2="758" y2="373"/>
<line id="edge_NC_TN" stroke="#000000" stroke-width="2" x1="797" y1="325" x2="653" y2="341"/>
<line id="edge_NC_VA" stroke="#000000" stroke-width="2" x1="797" y1="325" x2="813" y2="286"/>
<line id="edge_ND_SD" stroke="#000000" stroke-width="2" x1="395" y1="107" x2="395" y2="164"/>
<line id="edge_NE_SD" stroke="#000000" stroke-width="2" x1="468" y1="244" x2="395" y2="164"/>
<line id="edge_NE_WY" stroke="#000000" stroke-width="2" x1="468" y1="244" x2="328" y2="214"/>
<line id="edge_NH_VT" stroke="#000000" stroke-width="2" x1="869" y1="137" x2="850" y2="123"/>
<line id="edge_NJ_NY" stroke="#000000" stroke-width="2" x1="837" y1="212" x2="832" y2="155"/>
<line id="edge_NJ_PA" stroke="#000000" stroke-width="2" x1="837" y1="212" x2="796" y2="217"/>
<line id="edge_NM_OK" stroke="#000000" stroke-width="2" x1="302" y1="339" x2="461" y2="361"/>
<line id="edge_NM_TX" stroke="#000000" stroke-width="2" x1="302" y1="339" x2="461" y2="473"/>
<line id="edge_NV_OR" stroke="#000000" stroke-width="2" x1="96" y1="227" x2="63" y2="100"/>
<line id="edge_NV_UT" stroke="#000000" stroke-width="2" x1="96" y1="227" x2="206" y2="219"/>
<line id="edge_NY_PA" stroke="#000000" stroke-width="2" x1="832" y1="155" x2="796" y2="217"/>
<line id="edge_NY_VT" stroke="#000000" stroke-width="2" x1="832" y1="155" x2="850" y2="123"/>
<line id="edge_OH_PA" stroke="#000000" stroke-width="2" x1="702" y1="239" x2="796" y2="217"/>
<line id="edge_OH_WV" stroke="#000000" stroke-width="2" x1="702" y1="239" x2="736" y2="281"/>
<line id="edge_OK_TX" stroke="#000000" stroke-width="2" x1="461" y1="361" x2="461" y2="473"/>
<line id="edge_OR_WA" stroke="#000000" stroke-width="2" x1="63" y1="100" x2="84" y2="42"/>
<line id="edge_PA_WV" stroke="#000000" stroke-width="2" x1="796" y1="217" x2="736" y2="281"/>
<line id="edge_SD_WY" stroke="#000000" stroke-width="2" x1="395" y1="164" x2="328" y2="214"/>
<line id="edge_TN_VA" stroke="#000000" stroke-width="2" x1="653" y1="341" x2="813" y2="286"/>
<line id="edge_UT_WY" stroke="#000000" stroke-width="2" x1="206" y1="219" x2="328" y2="214"/>
<line id="edge_VA_WV" stroke="#000000" stroke-width="2" x1="813" y1="286" x2="736" y2="281"/>
<circle id="node_AL" cx="658" cy="424" r="3" stroke="#00fffff"/>
<circle id="node_AR" cx="534" cy="374" r="3" stroke="#00fffff"/>
<circle id="node_AZ" cx="201" cy="374" r="3" stroke="#00fffff"/>
<circle id="node_CA" cx="53" cy="227" r="3" stroke="#00fffff"/>
<circle id="node_CO" cx="317" cy="259" r="3" stroke="#00fffff"/>
<circle id="node_CT" cx="860" cy="176" r="3" stroke="#00fffff"/>
<circle id="node_DE" cx="832" cy="250" r="3" stroke="#00fffff"/>
<circle id="node_FL" cx="714" cy="461" r="3" stroke="#00fffff"/>
<circle id="node_GA" cx="697" cy="387" r="3" stroke="#00fffff"/>
<circle id="node_IA" cx="504" cy="214" r="3" stroke="#00fffff"/>
<circle id="node_ID" cx="168" cy="152" r="3" stroke="#00fffff"/>
<circle id="node_IL" cx="590" cy="250" r="3" stroke="#00fffff"/>
<circle id="node_IN" cx="644" cy="244" r="3" stroke="#00fffff"/>
<circle id="node_KS" cx="481" cy="286" r="3" stroke="#00fffff"/>
<circle id="node_KY" cx="675" cy="297" r="3" stroke="#00fffff"/>
<circle id="node_LA" cx="580" cy="475" r="3" stroke="#00fffff"/>
<circle id="node_MA" cx="874" cy="155" r="3" stroke="#00fffff"/>
<circle id="node_MD" cx="804" cy="251" r="3" stroke="#00fffff"/>
<circle id="node_ME" cx="896" cy="95" r="3" stroke="#00fffff"/>
<circle id="node_MI" cx="664" cy="188" r="3" stroke="#00fffff"/>
<circle id="node_MN" cx="520" cy="157" r="3" stroke="#00fffff"/>
<circle id="node_MO" cx="543" cy="296" r="3" stroke="#00fffff"/>
<circle id="node_MS" cx="590" cy="424" r="3" stroke="#00fffff"/>
<circle id="node_MT" cx="233" cy="80" r="3" stroke="#00fffff"/>
<circle id="node_NC" cx="797" cy="325" r="3" stroke="#00fffff"/>
<circle id="node_ND" cx="395" cy="107" r="3" stroke="#00fffff"/>
<circle id="node_NE" cx="468" cy="244" r="3" stroke="#00fffff"/>
<circle id="node_NH" cx="869" cy="137" r="3" stroke="#00fffff"/>
<circle id="node_NJ" cx="837" cy="212" r="3" stroke="#00fffff"/>
<circle id="node_NM" cx="302" cy="339" r="3" stroke="#00fffff"/>
<circle id="node_NV" cx="96" cy="227" r="3" stroke="#00fffff"/>
<circle id="node_NY" cx="832" cy="155" r="3" stroke="#00fffff"/>
<circle id="node_OH" cx="702" cy="239" r="3" stroke="#00fffff"/>
<circle id="node_OK" cx="461" cy="361" r="3" stroke="#00fffff"/>
<circle id="node_OR" cx="63" cy="100" r="3" stroke="#00fffff"/>
<circle id="node_PA" cx="796" cy="217" r="3" stroke="#00fffff"/>
<circle id="node_RI" cx="878" cy="172" r="3" stroke="#00fffff"/>
<circle id="node_SC" cx="758" cy="373" r="3" stroke="#00fffff"/>
<circle id="node_SD" cx="395" cy="164" r="3" stroke="#00fffff"/>
<circle id="node_TN" cx="653" cy="341" r="3" stroke="#00fffff"/>
<circle id="node_TX" cx="461" cy="473" r="3" stroke="#00fffff"/>
<circle id="node_UT" cx="206" cy="219" r="3" stroke="#00fffff"/>
<circle id="node_VA" cx="813" cy="286" r="3" stroke="#00fffff"/>
<circle id="node_VT" cx="850" cy="123" r="3" stroke="#00fffff"/>
<circle id="node_WA" cx="84" cy="42" r="3" stroke="#00fffff"/>
<circle id="node_WI" cx="590" cy="188" r="3" stroke="#00fffff"/>
<circle id="node_WV" cx="736" cy="281" r="3" stroke="#00fffff"/>
<circle id="node_WY" cx="328" cy="214" r="3" stroke="#00fffff"/>
</g>
</svg>
